<?xml version="1.0" encoding="UTF-8"?>
<svg xmlns="http://www.w3.org/2000/svg" xmlns:xlink="http://www.w3.org/1999/xlink" width="205.02pt" height="38.25pt" viewBox="0 0 205.02 38.25" version="1.1">
<g id="surface1">
<path style=" stroke:none;fill-rule:nonzero;fill:rgb(93.415833%,16.362%,15.377808%);fill-opacity:1;" d="M 140.136719 12.375 C 136.878906 12.375 133.949219 13.261719 132.34375 13.941406 L 130.503906 17.925781 C 132.296875 17.109375 134.707031 16.292969 137.160156 16.292969 C 139.707031 16.292969 139.851563 17.566406 139.285156 18.773438 L 139.097656 19.101563 C 133.191406 19.101563 127.574219 21.320313 125.261719 26.246094 C 123.800781 29.410156 124.886719 32.023438 128.472656 32.023438 C 130.550781 32.023438 132.722656 31.234375 134.613281 29.769531 L 134.75 29.769531 L 134.1875 31.625 L 139.378906 31.625 C 139.707031 30.484375 140.417969 28.859375 141.171875 27.160156 L 144.335938 20.40625 C 146.269531 16.226563 146.460938 12.375 140.136719 12.375 M 136.453125 25.199219 C 136.3125 25.527344 136.121094 25.855469 135.886719 26.148438 C 134.941406 27.320313 133.480469 28.074219 132.25 28.074219 C 131.117188 28.074219 130.359375 27.355469 131.164063 25.691406 C 132.296875 23.277344 135.085938 22.589844 137.679688 22.589844 Z M 136.453125 25.199219 "/>
<path style=" stroke:none;fill-rule:nonzero;fill:rgb(93.415833%,16.362%,15.377808%);fill-opacity:1;" d="M 80.320313 12.738281 L 74.9375 24.351563 C 74.652344 24.90625 74.320313 25.398438 73.992188 25.757813 C 73.28125 26.574219 72.058594 27.484375 70.6875 27.484375 C 68.847656 27.484375 68.847656 25.851563 70.074219 23.210938 L 74.984375 12.738281 L 69.179688 12.738281 L 63.9375 23.992188 C 61.339844 29.507813 62.519531 32.023438 66.441406 32.023438 C 69.320313 32.023438 71.773438 30.484375 73.191406 29.277344 L 73.28125 29.277344 L 72.480469 31.628906 L 77.628906 31.628906 C 77.957031 30.484375 78.617188 28.824219 79.421875 27.160156 C 80.175781 25.527344 86.125 12.738281 86.125 12.738281 Z M 80.320313 12.738281 "/>
<path style=" stroke:none;fill-rule:nonzero;fill:rgb(93.415833%,16.362%,15.377808%);fill-opacity:1;" d="M 104.113281 27.976563 C 101.847656 27.976563 101.988281 25.398438 103.5 22.167969 C 104.773438 19.457031 106.992188 16.425781 109.542969 16.425781 C 111.855469 16.425781 111.289063 19.457031 110.015625 22.167969 C 108.550781 25.300781 106.28125 27.976563 104.160156 27.976563 M 102.175781 32.023438 C 106.472656 32.023438 112.5625 29.378906 116.007813 22.070313 C 118.699219 16.226563 117 12.375 111.570313 12.375 C 106.238281 12.375 100.570313 15.902344 97.597656 22.292969 C 94.765625 28.398438 96.84375 32.023438 102.175781 32.023438 "/>
<path style=" stroke:none;fill-rule:nonzero;fill:rgb(93.415833%,16.362%,15.377808%);fill-opacity:1;" d="M 165.488281 27.976563 C 163.21875 27.976563 163.410156 25.398438 164.871094 22.167969 C 166.148438 19.457031 168.414063 16.425781 170.914063 16.425781 C 173.277344 16.425781 172.660156 19.457031 171.386719 22.167969 C 169.972656 25.300781 167.660156 27.976563 165.535156 27.976563 M 163.597656 32.023438 C 167.847656 32.023438 173.988281 29.378906 177.386719 22.070313 C 180.074219 16.226563 178.421875 12.375 172.945313 12.375 C 167.660156 12.375 161.992188 15.902344 159.019531 22.292969 C 156.140625 28.398438 158.21875 32.023438 163.550781 32.023438 Z M 163.597656 32.023438 "/>
<path style=" stroke:none;fill-rule:nonzero;fill:rgb(93.415833%,16.362%,15.377808%);fill-opacity:1;" d="M 195.890625 12.476563 C 195.515625 12.375 195.226563 12.375 194.710938 12.375 C 192.964844 12.375 190.414063 13.488281 188.289063 15.933594 L 188.148438 15.933594 L 189.375 12.738281 L 184.414063 12.738281 C 183.710938 14.433594 182.859375 16.359375 181.777344 18.742188 L 175.734375 31.625 L 178.847656 31.625 C 180.59375 31.625 181.964844 30.714844 182.765625 29.019531 L 186.023438 22.070313 C 186.304688 21.449219 186.636719 20.898438 186.921875 20.503906 C 188.289063 18.613281 190.269531 17.664063 192.019531 17.664063 C 192.632813 17.664063 193.007813 17.699219 193.386719 17.761719 Z M 195.890625 12.476563 "/>
<path style=" stroke:none;fill-rule:nonzero;fill:rgb(93.415833%,16.362%,15.377808%);fill-opacity:1;" d="M 153.351563 27.453125 C 151.84375 27.453125 151.464844 26.601563 152.503906 24.386719 L 156.089844 16.753906 L 159.539063 16.753906 L 161.421875 12.738281 L 157.933594 12.738281 L 160.292969 7.714844 L 157.269531 7.714844 C 155.523438 7.714844 154.15625 8.660156 153.351563 10.355469 L 152.21875 12.738281 L 149.71875 12.738281 L 147.875 16.753906 L 150.332031 16.753906 L 146.507813 25.003906 C 145.183594 27.8125 144.996094 29.476563 145.613281 30.523438 C 146.175781 31.464844 147.449219 31.988281 149.246094 31.988281 C 150.804688 31.988281 152.21875 31.792969 153.117188 31.535156 L 155.101563 27.292969 C 154.535156 27.421875 154.15625 27.453125 153.351563 27.453125 "/>
<path style=" stroke:none;fill-rule:nonzero;fill:rgb(93.415833%,16.362%,15.377808%);fill-opacity:1;" d="M 128.238281 7.710938 C 126.488281 7.710938 125.074219 8.660156 124.320313 10.359375 L 114.359375 31.625 L 117.476563 31.625 C 119.21875 31.625 120.585938 30.714844 121.390625 29.019531 L 131.351563 7.710938 Z M 128.238281 7.710938 "/>
<path style=" stroke:none;fill-rule:nonzero;fill:rgb(93.415833%,16.362%,15.377808%);fill-opacity:1;" d="M 101.28125 12.476563 C 100.949219 12.375 100.664063 12.375 100.097656 12.375 C 98.398438 12.375 95.804688 13.488281 93.726563 15.933594 L 93.539063 15.933594 L 94.8125 12.738281 L 89.808594 12.738281 C 89.101563 14.433594 88.296875 16.359375 87.164063 18.742188 L 81.167969 31.625 L 84.238281 31.625 C 86.03125 31.625 87.398438 30.714844 88.203125 29.019531 L 91.414063 22.070313 C 91.695313 21.449219 92.023438 20.898438 92.3125 20.503906 C 93.679688 18.613281 95.660156 17.664063 97.410156 17.664063 C 98.023438 17.664063 98.449219 17.699219 98.824219 17.761719 Z M 101.28125 12.476563 "/>
<path style=" stroke:none;fill-rule:nonzero;fill:rgb(93.415833%,16.362%,15.377808%);fill-opacity:1;" d="M 66.390625 13.910156 C 67.902344 10.191406 67.902344 5.980469 59.6875 5.980469 L 52.324219 5.980469 L 40.332031 31.628906 L 43.351563 31.628906 C 45.148438 31.628906 46.515625 30.714844 47.320313 29.019531 L 50.53125 22.167969 C 50.953125 22.199219 51.519531 22.234375 52.132813 22.234375 C 55.109375 22.234375 58.460938 21.9375 61.246094 20.113281 C 63.464844 18.675781 65.257813 16.652344 66.390625 13.910156 M 54.023438 17.890625 C 53.40625 17.890625 52.9375 17.890625 52.558594 17.796875 L 56.195313 9.992188 C 56.761719 9.902344 57.375 9.929688 58.320313 9.929688 C 61.105469 9.929688 61.8125 11.367188 60.679688 13.882813 C 59.546875 16.425781 57.042969 17.890625 54.023438 17.890625 "/>
<path style=" stroke:none;fill-rule:nonzero;fill:rgb(11.364746%,30.601501%,61.853027%);fill-opacity:1;" d="M 46.941406 5.980469 L 37.121094 5.980469 L 25.175781 31.628906 L 32.210938 31.628906 C 34.003906 31.628906 35.375 30.714844 36.175781 29.019531 C 36.980469 27.320313 46.941406 5.980469 46.941406 5.980469 "/>
<path style=" stroke:none;fill-rule:nonzero;fill:rgb(93.415833%,16.362%,15.377808%);fill-opacity:1;" d="M 33.957031 5.980469 L 22.015625 31.628906 L 17.480469 31.628906 L 28.25 8.59375 C 29.050781 6.929688 30.417969 5.980469 32.164063 5.980469 Z M 33.957031 5.980469 "/>
<path style=" stroke:none;fill-rule:nonzero;fill:rgb(11.364746%,30.601501%,61.853027%);fill-opacity:1;" d="M 19.796875 19.980469 L 8.652344 19.980469 C 7.992188 19.980469 7.472656 20.503906 7.472656 21.15625 C 7.472656 21.449219 7.613281 21.742188 7.804688 21.972656 L 15.359375 29.472656 Z M 19.796875 19.980469 "/>
</g>
</svg>
